<?xml version="1.0" encoding="UTF-8" standalone="no" ?>
<!DOCTYPE svg PUBLIC "-//W3C//DTD SVG 1.1//EN" "http://www.w3.org/Graphics/SVG/1.1/DTD/svg11.dtd">
<svg xmlns="http://www.w3.org/2000/svg" xmlns:xlink="http://www.w3.org/1999/xlink" version="1.1" width="1920" height="1920" viewBox="0 0 1920 1920" xml:space="preserve">
<desc>Created with Fabric.js 4.6.0</desc>
<defs>
</defs>
<g transform="matrix(1 0 0 1 960 960)" id="CUhlMSzvqOCQADUAiwNj5"  >
<path style="stroke: none; stroke-width: 1; stroke-dasharray: none; stroke-linecap: butt; stroke-dashoffset: 0; stroke-linejoin: miter; stroke-miterlimit: 4; fill: rgb(255,255,255); fill-rule: nonzero; opacity: 1;" vector-effect="non-scaling-stroke"  transform=" translate(-844.25, -960)" d="M 1625.93084 0.0193 L 62.510569999999916 0.0193 C 25.051169999999914 0.0193 -3.038630000000083 31.718300000000003 0.263869999999919 69.1581 L 143.0540699999999 1669.3719 C 146.35646999999992 1706.7925 178.7278699999999 1745.9602 215.0160699999999 1756.0593000000001 L 777.9419599999999 1912.4231000000002 C 814.1917599999999 1922.4646000000002 873.4432599999999 1922.5414000000003 909.7506599999999 1912.5575000000001 L 1473.38695 1756.4049 C 1509.69435 1746.325 1542.06575 1707.522 1545.36815 1670.0246 L 1688.23515 69.13879999999995 C 1691.53755 31.69899999999995 1663.56305 -5.684341886080802e-14 1625.91165 -5.684341886080802e-14 z M 1354.78794 577.6476 C 1354.76874 577.8972 1354.57674 578.0892 1354.3271399999999 578.1276 C 1354.0775399999998 578.166 1353.8471399999999 578.0508 1353.73194 577.8204000000001 L 912.6883499999999 758.5489 C 906.4099499999999 761.1217 902.8194499999998 767.784 904.1251499999998 774.4464 C 905.4307499999999 781.1088000000001 911.2867499999999 785.9087000000001 918.0644499999999 785.9087000000001 L 1261.1309399999998 785.9087000000001 C 1279.3902399999997 785.9087000000001 1296.7663399999997 793.6655000000001 1308.9776399999998 807.2206000000001 C 1321.1697399999998 820.7949000000001 1327.0449399999998 838.9004000000001 1325.1057399999997 857.0443000000001 L 1271.4990399999997 1359.8699000000001 C 1268.8686399999997 1384.5417000000002 1252.2989399999997 1405.4888 1228.8940399999997 1413.7256000000002 L 864.7650499999997 1541.8464000000001 C 851.0561499999998 1546.6848000000002 836.0992499999998 1546.7040000000002 822.3520499999997 1541.9424000000001 L 459.91265999999973 1416.3944000000001 C 436.3733599999997 1408.2345 419.6500599999997 1387.2106 417.00045999999975 1362.4427 L 392.69315999999975 1134.7129 C 391.42595999999975 1122.7514 395.28515999999973 1110.8283 403.31085999999976 1101.8811 C 411.3556599999998 1092.934 422.79895999999974 1087.8268 434.83745999999974 1087.8268 L 535.6956599999997 1087.8268 C 557.3725599999998 1087.8268 575.5358599999997 1104.1659 577.8398599999997 1125.7082 L 592.7583599999997 1265.6753 L 843.7027599999997 1352.9003 L 1095.7991599999996 1264.8689 L 1126.6345599999995 974.5666999999999 L 413.8528699999995 974.5666999999999 C 392.2527699999995 974.5666999999999 374.0894699999995 958.3043999999999 371.7278699999995 936.8388999999999 L 358.1533699999995 813.8060999999999 C 356.0797699999995 795.0477999999999 366.6781699999995 777.1726999999998 384.1118699999995 769.9727999999999 L 840.3043599999995 581.8907999999999 C 845.4883599999995 579.7595999999999 848.4259599999996 574.2683999999999 847.3315599999995 568.7772999999999 C 846.2371599999996 563.2860999999998 841.4371599999995 559.3309999999999 835.8498599999995 559.3309999999999 L 355.5419699999995 559.3309999999999 C 341.0842699999995 559.3309999999999 328.94986999999946 548.4062999999999 327.45216999999946 534.0447999999999 L 313.5512699999995 401.79599999999994 C 312.70646999999946 393.84729999999996 315.2984699999995 385.89849999999996 320.65526999999946 379.94649999999996 C 326.0120699999995 373.99449999999996 333.6345699999995 370.59619999999995 341.64096999999947 370.59619999999995 L 1346.6281499999996 370.59619999999995 C 1354.6729499999994 370.59619999999995 1362.3338499999995 374.03299999999996 1367.7098499999995 380.02329999999995 C 1373.0666499999995 386.0328999999999 1375.6202499999995 394.03919999999994 1374.6986499999996 402.02639999999997 z" stroke-linecap="round" />
</g>
</svg>