<?xml version="1.0" encoding="UTF-8" standalone="no" ?>
<!DOCTYPE svg PUBLIC "-//W3C//DTD SVG 1.1//EN" "http://www.w3.org/Graphics/SVG/1.1/DTD/svg11.dtd">
<svg xmlns="http://www.w3.org/2000/svg" xmlns:xlink="http://www.w3.org/1999/xlink" version="1.1" width="1920" height="1920" viewBox="0 0 1920 1920" xml:space="preserve">
<desc>Created with Fabric.js 4.6.0</desc>
<defs>
</defs>
<g transform="matrix(1 0 0 1 960 960)" id="UxuFaYXwkHBsbtO3KPDbi"  >
<path style="stroke: none; stroke-width: 1; stroke-dasharray: none; stroke-linecap: butt; stroke-dashoffset: 0; stroke-linejoin: miter; stroke-miterlimit: 4; fill: rgb(201,129,135); fill-rule: nonzero; opacity: 1;" vector-effect="non-scaling-stroke"  transform=" translate(-846.36, -960)" d="M 0.0363 0.5762 C 0.9579 9.69619 1.6683 18.10579 2.3594999999999997 26.51528 C 9.636299999999999 107.99983 16.7019 189.54208 24.055500000000002 270.94983 C 33.386700000000005 374.47596 42.7755 478.2133 51.972300000000004 581.68183 C 59.7483 668.75357 67.4475 756.01742 75.14670000000001 843.14676 C 83.90190000000001 941.2968999999999 92.7339 1039.38944 101.5083 1137.61637 C 109.20750000000001 1224.61131 116.9067 1311.9519599999999 124.68270000000001 1399.0812999999998 C 134.1483 1505.2186299999998 143.7675 1611.2215699999997 152.8107 1717.3781 C 153.3675 1724.2324999999998 155.5755 1727.13169 162.35309999999998 1728.97489 C 386.8577 1792.29635 611.247 1855.67541 835.4636 1918.86237 C 841.1084000000001 1920.41757 847.9052 1920.34077 853.5500000000001 1918.86237 C 1078.765 1855.67531 1303.9223000000002 1792.43065 1529.1373 1729.32049 C 1536.8365000000001 1727.1316900000002 1539.2365000000002 1723.8100900000002 1539.7357000000002 1716.2453 C 1544.5357000000001 1657.09024 1550.0461000000003 1598.01197 1555.2109000000003 1538.93371 C 1561.0093000000002 1473.76905 1566.9421000000002 1408.48929 1572.7405000000003 1343.19023 C 1577.9629000000004 1284.8223699999999 1583.0509000000004 1226.5889 1588.3501000000003 1168.1442399999999 C 1594.2829000000004 1102.8451799999998 1600.0813000000003 1037.54622 1605.8797000000004 972.3239599999998 C 1610.9677000000004 914.0136999999999 1616.1901000000005 855.7994299999998 1621.4893000000004 797.3547699999998 C 1627.2877000000003 732.3437099999998 1633.0861000000004 667.3327499999998 1638.8653000000004 602.3024899999998 C 1644.0877000000005 543.7810299999998 1649.1757000000005 485.2787599999998 1654.6285000000005 426.62289999999985 C 1660.4269000000004 361.61183999999986 1666.2253000000005 296.60087999999985 1672.0045000000005 231.57061999999985 C 1677.2269000000006 172.35795999999985 1682.4685000000004 112.99168999999985 1688.0557000000006 53.702229999999844 C 1689.5341000000005 36.038239999999846 1691.0317000000007 18.220749999999846 1692.7213000000006 -0.00004000000015480509 C 1128.0140000000006 0.5567599999998452 564.7073100000007 0.5567599999998452 0.000010000000656873453 0.5567599999998452 z M 1358.42999 562.88514 C 1088.47899 562.88514 818.6634900000001 562.88514 547.86769 562.88514 C 554.22289 635.88339 560.52049 708.17115 566.74129 780.6894 C 824.61549 780.6894 1081.70239 780.6894 1339.70999 780.6894 C 1337.8091900000002 796.03019 1335.3899900000001 810.50688 1334.06519 825.13727 C 1330.45559 861.9627499999999 1326.9995900000001 898.84592 1323.75479 935.5178 C 1317.82199 1002.16086 1312.02359 1069.22622 1306.2251899999999 1135.86927 C 1301.13719 1195.79233 1295.97239 1255.36979 1290.6155899999999 1315.2927599999998 C 1287.29399 1353.0974399999998 1283.54999 1390.9022099999997 1280.36279 1428.6492899999998 C 1279.8059899999998 1434.5820899999999 1275.9851899999999 1434.7356899999997 1272.50999 1435.7916899999998 C 1181.13719 1460.9436699999999 1089.89979 1486.1723599999998 998.5269900000001 1511.1899399999998 C 948.4149900000001 1525.1099299999998 898.3797900000001 1539.1834199999998 848.2111900000001 1552.9498099999998 C 845.9455900000002 1553.6602099999998 842.8351900000001 1553.2378099999999 840.4351900000001 1552.4506099999999 C 698.6825900000001 1513.5131299999998 556.9865900000002 1474.4412599999998 415.3684900000001 1435.63808 C 408.8596900000001 1434.0060799999999 408.72529000000014 1429.99328 408.3028900000001 1425.3276899999998 C 404.6932900000001 1379.8238199999998 401.1028900000001 1334.66555 397.7044900000001 1289.1424799999998 C 392.9620900000001 1228.0866199999998 388.1620900000001 1166.9539599999998 383.3620900000001 1105.8213999999998 C 383.22769000000005 1104.2661999999998 383.22769000000005 1102.3654 383.07409000000007 1100.1765999999998 C 453.03889000000004 1100.1765999999998 522.84909 1100.1765999999998 593.0250900000001 1100.1765999999998 C 594.7914900000001 1120.0293899999997 596.6922900000001 1139.9012699999998 598.4010900000001 1159.3892599999997 C 601.5114900000001 1194.0259399999998 604.6218900000001 1228.5667199999998 607.57869 1263.4145899999996 C 607.8666900000001 1267.3697899999997 609.05709 1268.9249899999995 612.8778900000001 1270.0577899999996 C 688.9098900000001 1290.3329799999997 764.80649 1310.8960599999996 840.9920900000001 1331.3248499999995 C 843.6800900000001 1332.0928499999995 846.9248900000001 1331.7472499999994 849.68969 1331.0368499999995 C 924.7424900000001 1310.8960599999996 999.71749 1290.4673799999996 1074.90469 1270.5377899999994 C 1079.43589 1269.1937899999994 1081.4134900000001 1267.1393899999994 1081.83589 1262.5505999999993 C 1090.11109 1173.9236599999992 1098.52069 1085.1814099999992 1107.0646900000002 996.6312699999994 C 1107.0646900000002 996.3432699999994 1106.9302900000002 995.9976699999994 1106.7766900000001 994.9992699999995 C 862.0544900000002 994.9992699999995 617.1787900000002 994.9992699999995 371.7461900000002 994.9992699999995 C 352.4501900000002 780.8046099999995 333.36539000000016 567.3779399999994 314.2229900000002 353.33697999999947 C 669.3248900000002 353.33697999999947 1022.8918900000002 353.33697999999947 1378.2817800000003 353.33697999999947 C 1371.8497800000002 423.14803999999947 1365.0721800000003 492.6325899999995 1358.4289800000004 562.8660499999994 z" stroke-linecap="round" />
</g>
</svg>