<?xml version="1.0" encoding="UTF-8" standalone="no" ?>
<!DOCTYPE svg PUBLIC "-//W3C//DTD SVG 1.1//EN" "http://www.w3.org/Graphics/SVG/1.1/DTD/svg11.dtd">
<svg xmlns="http://www.w3.org/2000/svg" xmlns:xlink="http://www.w3.org/1999/xlink" version="1.1" width="1920" height="1920" viewBox="0 0 1920 1920" xml:space="preserve">
<desc>Created with Fabric.js 4.6.0</desc>
<defs>
</defs>
<g transform="matrix(1 0 0 1 960 961.56)" id="soTwpS37QlMxcgrNPoDPq"  >
<path style="stroke: none; stroke-width: 1; stroke-dasharray: none; stroke-linecap: butt; stroke-dashoffset: 0; stroke-linejoin: miter; stroke-miterlimit: 4; fill: rgb(255,255,255); fill-rule: nonzero; opacity: 1;" vector-effect="non-scaling-stroke"  transform=" translate(-846.36, -960)" d="M 0.0363 0.5567 C 0.9579 9.6768 1.6683 18.086399999999998 2.3594999999999997 26.4961 C 9.636299999999999 107.9815 16.7019 189.5245 24.055500000000002 270.9331 C 33.386700000000005 374.4603 42.7755 478.19860000000006 51.972300000000004 581.6682000000001 C 59.7483 668.7408 67.4475 756.0055000000001 75.14670000000001 843.1357 C 83.90190000000001 941.2868000000001 92.7339 1039.3804 101.5083 1137.6083 C 109.20750000000001 1224.6041 116.9067 1311.9456 124.68270000000001 1399.0758 C 134.1483 1505.2142000000001 143.7675 1611.2182 152.8107 1717.3758 C 153.3675 1724.2303 155.5755 1727.1295 162.35309999999998 1728.9727 C 386.8577 1792.2948000000001 611.247 1855.6744 835.4636 1918.8621 C 841.1084000000001 1920.4173 847.9052 1920.3405 853.5500000000001 1918.8621 C 1078.765 1855.6936 1303.9223000000002 1792.4292 1529.1373 1729.3375 C 1536.8365000000001 1727.1487000000002 1539.2365000000002 1723.8271000000002 1539.7357000000002 1716.2622000000001 C 1544.5357000000001 1657.1066 1550.0461000000003 1598.0277 1555.2109000000003 1538.9489 C 1561.0093000000002 1473.7836000000002 1566.9421000000002 1408.5031000000001 1572.7405000000003 1343.2035 C 1577.9629000000004 1284.8351 1583.0509000000004 1226.601 1588.3501000000003 1168.1558 C 1594.2829000000004 1102.8561 1600.0813000000003 1037.5564 1605.8797000000004 972.3335 C 1610.9677000000004 914.0227 1616.1901000000005 855.8077999999999 1621.4893000000004 797.3625999999999 C 1627.2877000000003 732.3508999999999 1633.0861000000004 667.3391999999999 1638.8653000000004 602.3083999999999 C 1644.0877000000005 543.7863999999998 1649.1757000000005 485.2834999999999 1654.6285000000005 426.6270999999999 C 1660.4269000000004 361.6153999999999 1666.2253000000005 296.6036999999999 1672.0045000000005 231.57289999999992 C 1677.2269000000006 172.35969999999992 1682.4685000000004 112.99279999999992 1688.0557000000006 53.70279999999991 C 1689.5341000000005 36.038699999999906 1691.0317000000007 18.220899999999908 1692.7213000000006 -9.237055564881302e-14 C 1128.0140000000006 0.5567999999999076 564.7073100000007 0.5567999999999076 0.000010000000656873453 0.5567999999999076 z M 1358.42999 562.8713 C 1088.47899 562.8713 818.6634900000001 562.8713 547.86769 562.8713 C 554.22289 635.8702000000001 560.52049 708.1588 566.74129 780.6777 C 824.61549 780.6777 1081.70239 780.6777 1339.70999 780.6777 C 1337.8091900000002 796.0186 1335.3899900000001 810.4955 1334.06519 825.126 C 1330.45559 861.9519 1326.9995900000001 898.8353 1323.75479 935.5076 C 1317.82199 1002.1513 1312.02359 1069.2174 1306.2251899999999 1135.8611 C 1301.13719 1195.7847000000002 1295.97239 1255.3628 1290.6155899999999 1315.2864 C 1287.29399 1353.0915 1283.54999 1390.8966 1280.36279 1428.644 C 1279.8059899999998 1434.5768 1275.9851899999999 1434.7304 1272.50999 1435.7865 C 1181.13719 1460.9387 1089.89979 1486.1677 998.5269900000001 1511.1855 C 948.4149900000001 1525.1056 898.3797900000001 1539.1793 848.2111900000001 1552.9458 C 845.9455900000002 1553.6562 842.8351900000001 1553.2338 840.4351900000001 1552.4466 C 698.6825900000001 1513.5087 556.9865900000002 1474.4364 415.3684900000001 1435.6329 C 408.8596900000001 1434.0009 408.72529000000014 1429.9881 408.3028900000001 1425.3224 C 404.6932900000001 1379.8181 401.1028900000001 1334.6593 397.7044900000001 1289.1358 C 392.9620900000001 1228.0793 388.1620900000001 1166.9461000000001 383.3620900000001 1105.8128 C 383.22769000000005 1104.2576 383.22769000000005 1102.3568 383.07409000000007 1100.168 C 453.03889000000004 1100.168 522.84909 1100.168 593.0250900000001 1100.168 C 594.7914900000001 1120.0209 596.6922900000001 1139.8930999999998 598.4010900000001 1159.3811999999998 C 601.5114900000001 1194.0182999999997 604.6218900000001 1228.5593 607.57869 1263.4075999999998 C 607.8666900000001 1267.3627999999999 609.05709 1268.9179999999997 612.8778900000001 1270.0507999999998 C 688.9098900000001 1290.3261999999997 764.80649 1310.8894999999998 840.9920900000001 1331.3184999999999 C 843.6800900000001 1332.0865 846.9248900000001 1331.7408999999998 849.68969 1331.0304999999998 C 924.7424900000001 1310.8895999999997 999.71749 1290.4605999999999 1074.90469 1270.5308999999997 C 1079.43589 1269.1868999999997 1081.4134900000001 1267.1324999999997 1081.83589 1262.5435999999997 C 1090.11109 1173.9156999999998 1098.52069 1085.1726999999996 1107.0646900000002 996.6215999999997 C 1107.0646900000002 996.3335999999997 1106.9302900000002 995.9879999999997 1106.7766900000001 994.9895999999998 C 862.0544900000002 994.9895999999998 617.1787900000002 994.9895999999998 371.7461900000002 994.9895999999998 C 352.4501900000002 780.7927999999997 333.36539000000016 567.3639999999998 314.2229900000002 353.32079999999974 C 669.3248900000002 353.32079999999974 1022.8918900000002 353.32079999999974 1378.2817800000003 353.32079999999974 C 1371.8497800000002 423.1324999999997 1365.0721800000003 492.61779999999976 1358.4289800000004 562.8519999999997 z" stroke-linecap="round" />
</g>
</svg>