<?xml version="1.0" encoding="UTF-8" standalone="no" ?>
<!DOCTYPE svg PUBLIC "-//W3C//DTD SVG 1.1//EN" "http://www.w3.org/Graphics/SVG/1.1/DTD/svg11.dtd">
<svg xmlns="http://www.w3.org/2000/svg" xmlns:xlink="http://www.w3.org/1999/xlink" version="1.1" width="1920" height="1920" viewBox="0 0 1920 1920" xml:space="preserve">
<desc>Created with Fabric.js 4.6.0</desc>
<defs>
</defs>
<g transform="matrix(1 0 0 1 958.37 961.63)" id="gEjzdtKDA-jFJW992O6fZ"  >
<path style="stroke: none; stroke-width: 1; stroke-dasharray: none; stroke-linecap: butt; stroke-dashoffset: 0; stroke-linejoin: miter; stroke-miterlimit: 4; fill: rgb(255,255,255); fill-rule: nonzero; opacity: 1;" vector-effect="non-scaling-stroke"  transform=" translate(-960, -960)" d="M 0 0 L 1920 0 L 1920 1920 L 0 1920 z M 1762.72025 1462.08 C 1748.7201200000002 1374.48046 1691.6802500000001 1300.88013 1522.48071 1232.24013 C 1463.60096 1204.6396699999998 1398.16071 1185.43967 1378.72025 1141.0401299999999 C 1371.44012 1114.6401299999998 1370.31979 1100.24013 1375.0405 1084.6396699999998 C 1387.0405 1032.9599199999998 1448.2400400000001 1017.4396699999998 1496.24096 1031.8396699999998 C 1527.4409600000001 1041.4396699999998 1556.24096 1065.4396699999998 1574.3207100000002 1103.8396699999998 C 1657.0409600000003 1049.7599199999997 1657.0409600000003 1049.7599199999997 1714.7202500000003 1013.8401299999998 C 1693.1202500000004 980.2401299999998 1682.4000000000003 965.7599999999998 1667.8405000000002 951.4401299999998 C 1617.4405000000002 895.0396699999999 1550.3206300000002 866.2396699999998 1441.1202500000002 868.7198799999999 L 1384.72071 875.8397499999999 C 1330.64096 889.0392899999998 1279.1207100000001 917.8402099999998 1247.92071 956.2392899999999 C 1156.72071 1059.5194199999999 1183.04058 1239.5194199999999 1293.4405800000002 1313.91942 C 1402.6401200000003 1395.5194199999999 1562.3207100000002 1413.43967 1582.72033 1490.31896 C 1601.9203300000001 1583.91896 1513.1203300000002 1613.9194200000002 1425.4405800000002 1603.11896 C 1360.5604500000002 1588.71896 1324.6405800000002 1556.23921 1285.04104 1496.23921 L 1138.64104 1580.31934 C 1155.44104 1618.71934 1174.64104 1635.43921 1203.44104 1669.03921 C 1342.64104 1809.5189599999999 1690.64104 1802.3189599999998 1753.12117 1588.71896 C 1755.44104 1581.5189599999999 1772.32117 1532.3184999999999 1759.0414199999998 1456.71896 z M 1044.08013 882.48046 L 864.2403800000001 882.48046 C 864.2403800000001 1037.52046 863.5199200000001 1191.60046 863.5199200000001 1346.88092 C 863.5199200000001 1445.44117 868.5603800000001 1535.9207900000001 852.4799200000001 1563.76079 C 826.0799200000001 1618.88066 758.0801700000001 1611.84092 727.1999200000001 1602.1607900000001 C 695.5199200000002 1586.4810400000001 679.4403800000001 1564.8810400000002 660.7996700000001 1533.76033 C 655.75921 1525.35987 651.9994200000001 1518.08058 650.6395400000001 1518.08058 L 504.6394100000001 1608.08104 C 529.0392800000001 1658.4810400000001 564.6394100000001 1701.84129 610.5591600000001 1729.44091 C 678.9587000000001 1770.24091 770.8791600000002 1783.44045 867.1187000000002 1761.8404500000001 C 929.7591600000002 1743.7607 983.7587000000002 1706.56032 1011.9985700000002 1648.9603200000001 C 1052.7985700000002 1574.56032 1044.1585700000003 1483.3603200000002 1043.7587 1381.2805700000001 C 1044.7187000000001 1216.9603200000001 1043.7587 1052.5607 1043.7587 886.9607000000001 z" stroke-linecap="round" />
</g>
</svg>